# xmcd CD database file
# Copyright (C) 1995-1998 Ti Kan
#
# Track frame offsets:
#	150
#	16397
#	36259
#	67580
#	82846
#	108969
#	132596
#	172567
#	194132
#	213934
#	229441
#	248215
#	277559
#	298923
#
# Disc length: 4436 seconds
#
# Revision: 1
# Processed by: cddbd v1.4b41PL1 Copyright (c) Steve Scherf et al.
# Submitted via: CDex 1.30
#
DISCID=bd11520e
DTITLE=Alvon - The Blues Grew Up
DYEAR=2000
DGENRE=Blues
TTITLE0=The Blues Grew Up
TTITLE1=Ooh Wee
TTITLE2=Heaven
TTITLE3=Pretty Girl
TTITLE4=Gussie Mae
TTITLE5=Love Is The Answer
TTITLE6=Love Me Or Leave Me
TTITLE7=By Bye Baby
TTITLE8=I Mean It
TTITLE9=Thank You
TTITLE10=Yes I Love You
TTITLE11=Tater
TTITLE12=Bluestone Rocks
TTITLE13=Hey Joe
EXTD=\nYEAR: 2000  ID3G:   0
EXTT0=
EXTT1=
EXTT2=
EXTT3=
EXTT4=
EXTT5=
EXTT6=
EXTT7=
EXTT8=
EXTT9=
EXTT10=
EXTT11=
EXTT12=
EXTT13=
PLAYORDER=
